<?xml version="1.0" encoding="utf-8"?>
<!-- Generator: Adobe Illustrator 16.0.0, SVG Export Plug-In . SVG Version: 6.00 Build 0)  -->
<!DOCTYPE svg PUBLIC "-//W3C//DTD SVG 1.1//EN" "http://www.w3.org/Graphics/SVG/1.1/DTD/svg11.dtd">
<svg version="1.1" id="Capa_1" xmlns="http://www.w3.org/2000/svg" xmlns:xlink="http://www.w3.org/1999/xlink" x="0px" y="0px"
	 width="135.284px" height="148.956px" viewBox="0 0 135.284 148.956" enable-background="new 0 0 135.284 148.956"
	 xml:space="preserve">
<g>
	<path fill="#DA332D" d="M44.451,88.256v30.923c0,4.509,0.644,7.086,1.933,8.374c1.288,1.289,4.509,1.933,9.019,1.933
		c1.933,0,4.509,0,7.73-0.644v19.971c0,0-11.596,0-14.817,0c-10.308,0-32.855,1.288-39.297-3.865C5.154,142.371,0,132.708,0,122.4
		V36.72h44.451v23.836h21.903v27.701H44.451z"/>
</g>
<g>
	<path d="M127.554,97.276c3.222,3.865,3.865,7.086,3.865,9.019v43.162H88.901v-45.738c0-7.087-2.577-12.24-5.798-13.529
		c-1.288-0.644-5.153-1.288-10.307-1.288V61.844l-1.289-1.289c2.577,0,5.798,0,8.375-0.644c3.221-0.645,5.798-1.933,7.086-5.154
		c1.289-2.577,1.289-7.086,1.289-10.307c0-5.154-1.289-8.375-4.509-10.952c-3.221-2.577-9.019-3.865-17.394-3.865h-19.97L0,30.278V0
		h77.305c14.173,0,25.125,1.289,32.855,3.865s13.528,7.086,18.037,13.528c5.154,6.442,7.087,14.817,7.087,24.48
		c0,8.375-1.933,15.461-5.153,21.259c-3.865,5.798-8.375,10.952-14.817,14.817c-3.865,2.576-9.663,4.509-16.104,5.798
		c5.797,1.933,13.527,3.865,17.393,5.153C119.179,90.833,124.332,93.411,127.554,97.276z"/>
</g>
</svg>
